:SAMPLES-PER-SECOND 30
:FULLY-SPECIFIED
:DEGREES
911
root  52.9049 37.4528 6.78285 -147.118 -83.4912 143.593
RightUpLeg  -22.0461 -5.70743 -2.95273
RightLeg  4.50066 0.637718 0.783804
RightFoot  -3.5297 -0.474984 7.34857
RightToes  -9.31324e-010 0 -3.6325e-017
Spine  10.4479 -0.229864 0.133289
Spine1  4.20149 0.167584 -1.79309
HEad  -2.06277 -7.95409 -8.70754
LeftShoulder1  -0.253813 4.18136 -31.3282
LeftArm  0.45738 -3.92211 -41.5356
LeftForeArm  19.3721 -26.2182 -4.5745
LeftHand  -0.0267234 5.34883 3.34152
RightShoulder  -0.818659 -5.72641 30.1991
RightArm  16.0299 -7.2389 43.2025
RightForeArm  14.9864 9.83404 7.22384
RightHand  -0.112752 4.9438 -1.571
LeftUpLeg  14.2828 6.9021 -4.86743
LeftLeg  14.7534 1.23244 0.29585
LeftFoot  -23.0259 0.264896 1.21448
LeftToes  8.61288e-010 -5.99147e-011 2.1039e-011
912
root  51.3972 37.381 6.62776 -159.982 -84.149 156.1
RightUpLeg  -23.04 -4.88033 -0.910348
RightLeg  10.2939 1.41781 0.639247
RightFoot  2.55172 -0.14132 1.00772
RightToes  -9.31324e-010 0 -3.6325e-017
Spine  11.0051 -0.528454 2.48237
Spine1  4.17178 -0.246028 -0.890123
HEad  -2.15746 -7.64384 -9.34811
LeftShoulder1  -0.223115 4.09837 -31.3606
LeftArm  -0.678915 -2.87617 -41.1085
LeftForeArm  20.5926 -29.385 -5.24474
LeftHand  -0.0533292 4.28933 3.57911
RightShoulder  -0.859711 -5.81831 30.5123
RightArm  15.6999 -6.04925 42.5281
RightForeArm  14.9647 9.65672 7.16014
RightHand  -0.141119 4.82573 -1.89081
LeftUpLeg  16.8054 6.65808 -2.94741
LeftLeg  15.7015 0.456379 0.418156
LeftFoot  -22.8159 0.0130473 -1.19096
LeftToes  8.61288e-010 -5.99147e-011 2.1039e-011
913
root  49.781 37.2242 6.44422 -175.453 -84.4766 171.15
RightUpLeg  -23.2314 -3.61885 0.557747
RightLeg  15.6575 1.71046 0.393309
RightFoot  5.93329 -0.137876 1.16807
RightToes  -9.31324e-010 0 -3.6325e-017
Spine  9.94187 -0.953875 4.69142
Spine1  5.93576 -0.625558 -0.176117
HEad  -2.35213 -7.4168 -10.2363
LeftShoulder1  -0.24943 4.15755 -32.036
LeftArm  -0.389183 -2.48964 -40.8364
LeftForeArm  20.5192 -31.6137 -5.78252
LeftHand  -0.0332924 5.16244 4.41091
RightShoulder  -0.774766 -5.62485 29.8799
RightArm  13.9584 -4.50124 43.0446
RightForeArm  14.3327 9.01065 6.88262
RightHand  -0.180321 5.86816 -2.21237
LeftUpLeg  17.9607 5.68496 -1.02395
LeftLeg  19.8544 -0.177018 0.265061
LeftFoot  -22.5619 -0.399251 -5.43448
LeftToes  8.61288e-010 -5.99147e-011 2.1039e-011
914
root  48.2253 37.0965 6.28291 168.292 -83.8034 -172.31
RightUpLeg  -24.0905 -2.62342 2.38813
RightLeg  21.5119 1.60404 0.474686
RightFoot  4.29519 0.17358 -1.07533
RightToes  -9.31324e-010 0 -3.6325e-017
Spine  10.2119 -1.06572 7.98174
Spine1  4.76307 -0.187429 -0.615386
HEad  -1.4896 -7.6525 -11.0405
LeftShoulder1  -0.133014 3.85383 -31.8933
LeftArm  1.07392 -0.339084 -40.999
LeftForeArm  21.6656 -33.1845 -6.10898
LeftHand  -0.0422982 4.83096 4.95052
RightShoulder  -0.823414 -5.74178 30.1649
RightArm  13.2473 -4.09251 42.38
RightForeArm  12.6906 9.0754 6.65392
RightHand  -0.165012 7.15817 -1.89185
LeftUpLeg  16.1837 5.5445 1.30148
LeftLeg  27.5758 -1.52343 -0.560072
LeftFoot  -19.5888 -0.604835 -10.4052
LeftToes  8.61288e-010 -5.99147e-011 2.1039e-011
915
root  46.8399 37.0387 6.06792 158.184 -83.5267 -161.843
RightUpLeg  -24.1351 -2.90244 3.83083
RightLeg  25.5451 1.55495 0.573806
RightFoot  1.26981 0.306576 -2.6832
RightToes  -9.31324e-010 0 -3.6325e-017
Spine  10.2244 -1.24262 9.6829
Spine1  4.54372 -0.1558 0.289596
HEad  -0.886512 -7.70521 -11.3976
LeftShoulder1  -0.104327 3.7812 -31.4289
LeftArm  2.80059 1.31983 -41.7642
LeftForeArm  23.4376 -33.9598 -6.20388
LeftHand  -0.0554881 4.02764 2.99624
RightShoulder  -0.77542 -5.61816 30.0208
RightArm  12.64 -3.04398 42.7866
RightForeArm  11.7143 9.03064 6.5342
RightHand  -0.254091 6.11455 -2.88608
LeftUpLeg  11.4989 4.75394 3.14294
LeftLeg  38.3764 -2.36238 -1.58176
LeftFoot  -11.7461 0.00157083 -15.0481
LeftToes  8.61288e-010 -5.99147e-011 2.1039e-011
916
root  45.5056 37.1076 5.8423 146.794 -83.9137 -150.126
RightUpLeg  -23.0693 -3.09648 4.8328
RightLeg  27.583 0.758912 0.186714
RightFoot  -1.56583 0.278727 -3.36035
RightToes  -9.31324e-010 0 -3.6325e-017
Spine  9.38748 -1.33929 11.1567
Spine1  5.38521 -0.156111 1.00482
HEad  -0.448777 -8.86754 -11.2857
LeftShoulder1  -0.0312244 3.58852 -30.9516
LeftArm  5.45534 1.56269 -42.9874
LeftForeArm  24.744 -33.6908 -6.05899
LeftHand  -0.0351352 4.7743 2.04234
RightShoulder  -0.756546 -5.58294 29.7313
RightArm  12.4567 -1.6866 43.4679
RightForeArm  10.8796 9.46006 6.45517
RightHand  -0.242352 6.55428 -2.69791
LeftUpLeg  4.88082 2.98266 4.30653
LeftLeg  49.6626 -1.24071 -1.09466
LeftFoot  2.91442 1.48309 -12.7542
LeftToes  8.61288e-010 -5.99147e-011 2.1039e-011
